# xmcd
#
# Track frame offsets:
#	150
#	13725
#	25100
#	39905
#	52602
#	65325
#	80137
#	92825
#	107307
#	120990
#	133285
#	148140
#	162647
#	181232
#	196987
#	208675
#	222730
#
# Disc length: 3102 seconds
#
# Revision: 1
# Processed by: cddbd v1.5.2PL0 Copyright (c) Steve Scherf et al.
# Submitted via: audiograbber 1.83.01
#
DISCID=f00c1c11
DTITLE=billy paul - texas rose
DYEAR=1997
DGENRE=Country
TTITLE0=texas rose
TTITLE1=buchshot buck
TTITLE2=strange dream
TTITLE3=little girl
TTITLE4=still water runs the deepest
TTITLE5=rodeo queen
TTITLE6=rollin'
TTITLE7=blue water
TTITLE8=501
TTITLE9=bottom dollar
TTITLE10=the real thing
TTITLE11=pretty girl
TTITLE12=57 fairline
TTITLE13=the farm
TTITLE14=nothin' can stop me
TTITLE15=my house is your honky tonk
TTITLE16=hillbilly hula gal
EXTD=
EXTT0=
EXTT1=
EXTT2=
EXTT3=
EXTT4=
EXTT5=
EXTT6=
EXTT7=
EXTT8=
EXTT9=
EXTT10=
EXTT11=
EXTT12=
EXTT13=
EXTT14=
EXTT15=
EXTT16=
PLAYORDER=
